<svg width="32" height="32" viewBox="0 0 32 32" fill="none" xmlns="http://www.w3.org/2000/svg">
  <!-- Background gradient -->
  <defs>
    <linearGradient id="bg" x1="0%" y1="0%" x2="100%" y2="100%">
      <stop offset="0%" style="stop-color:#2563EB;stop-opacity:1" />
      <stop offset="100%" style="stop-color:#1E40AF;stop-opacity:1" />
    </linearGradient>
  </defs>
  <rect width="32" height="32" rx="6" fill="url(#bg)"/>
  
  <!-- MacBook laptop -->
  <rect x="5" y="11" width="22" height="14" rx="1" fill="#374151" stroke="#FFFFFF" stroke-width="1"/>
  
  <!-- Screen -->
  <rect x="6.5" y="12.5" width="19" height="11" rx="0.5" fill="#000000"/>
  
  <!-- Screen glow -->
  <rect x="7" y="13" width="18" height="10" rx="0.3" fill="#1F2937"/>
  
  <!-- Apple logo -->
  <path d="M16 17.5 C15.2 17.5 14.5 16.8 14.5 16 C14.5 15.2 15.2 14.5 16 14.5 C16.8 14.5 17.5 15.2 17.5 16 C17.5 16.8 16.8 17.5 16 17.5 Z" fill="#FFFFFF"/>
  <path d="M16 14.5 C15.8 14 15.8 13.3 16.2 13 C16.4 13.2 16.4 13.8 16 14.5 Z" fill="#FFFFFF"/>
  
  <!-- Repair wrench -->
  <path d="M9 26 L11 24 L10.5 23.5 L8.5 25.5 Z" fill="#F59E0B" stroke="#FFFFFF" stroke-width="0.3"/>
  <circle cx="9.5" cy="25.5" r="0.5" fill="#F59E0B"/>
  
  <!-- Screwdriver -->
  <path d="M23 26 L21 24 L21.5 23.5 L23.5 25.5 Z" fill="#10B981" stroke="#FFFFFF" stroke-width="0.3"/>
  <circle cx="22.5" cy="25.5" r="0.5" fill="#10B981"/>
  
  <!-- Tech indicator -->
  <circle cx="26" cy="6" r="4" fill="#DC2626"/>
  <path d="M24 6 L28 6 M26 4 L26 8" stroke="#FFFFFF" stroke-width="1" stroke-linecap="round"/>
</svg>